<svg width="45" height="45" viewBox="0 0 45 45" fill="none" xmlns="http://www.w3.org/2000/svg">
<rect width="45" height="45" fill="#1E1E1E"/>
<path d="M18.0041 42.0098H16.0037V44.0102H18.0041V42.0098Z" fill="white"/>
<path d="M16.0037 40.0091V42.0096H12.0028V40.0091H8.0019V38.0087H6.0014V36.0082H4.0009V34.0077H2.0005V30.0068H12.0028V36.0082H14.0032V40.0091H16.0037Z" fill="white"/>
<path d="M30.0068 30.0068V34.0077H28.0064V38.0087H26.0059V42.0096H24.0054V44.01H20.0045V42.0096H18.0041V38.0087H16.0036V34.0077H14.0032V30.0068H30.0068Z" fill="white"/>
<path d="M28.0063 42.0098H26.0059V44.0102H28.0063V42.0098Z" fill="white"/>
<path d="M42.0095 30.0068V34.0077H40.0091V36.0082H38.0086V38.0087H36.0082V40.0091H32.0073V42.0096H28.0063V40.0091H30.0068V36.0082H32.0073V30.0068H42.0095Z" fill="white"/>
<path d="M30.0068 18.0039H26.0059V20.0044H30.0068V18.0039Z" fill="white"/>
<path d="M30.0068 22.0049H26.0059V24.0053H30.0068V22.0049Z" fill="white"/>
<path d="M0 14.0029V28.0061H44.01V14.0029H0ZM12.0027 22.0047H10.0023V26.0057H8.0018V22.0047H6.0014V26.0057H4.0009V22.0047H2.0005V16.0034H4.0009V22.0047H6.0014V20.0043H8.0018V22.0047H10.0023V16.0034H12.0027V22.0047ZM22.005 18.0038H16.0036V20.0043H20.0045V22.0047H16.0036V24.0052H22.005V26.0057H14.0032V16.0034H22.005V18.0038ZM32.0073 20.0043H30.0068V22.0047H32.0073V24.0052H30.0068V26.0057H24.0055V16.0034H30.0068V18.0038H32.0073V20.0043ZM42.0095 20.0043H40.0091V22.0047H42.0095V24.0052H40.0091V26.0057H34.0077V24.0052H40.0091V22.0047H36.0082V20.0043H40.0091V18.0038H34.0077V16.0034H40.0091V18.0038H42.0095V20.0043Z" fill="white"/>
<path d="M42.0095 10.0023V12.0028H32.0073V8.00189H30.0068V4.00089H28.0063V2.00049H32.0073V4.00089H36.0082V6.00139H38.0086V8.00189H40.0091V10.0023H42.0095Z" fill="white"/>
<path d="M28.0063 0H26.0059V2.0005H28.0063V0Z" fill="white"/>
<path d="M30.0068 10.0023V12.0027H14.0032V10.0023H16.0036V6.0014H18.0041V2.0005H20.0045V0H24.0054V2.0005H26.0059V6.0014H28.0064V10.0023H30.0068Z" fill="white"/>
<path d="M18.0041 0H16.0037V2.0005H18.0041V0Z" fill="white"/>
<path d="M16.0037 2.00049V4.00089H14.0032V8.00189H12.0028V12.0028H2.0005V10.0023H4.0009V8.00189H6.0014V6.00139H8.0019V4.00089H12.0028V2.00049H16.0037Z" fill="white"/>
</svg>
